<?xml version="1.0" standalone="no"?>
<!DOCTYPE svg PUBLIC "-//W3C//DTD SVG 20010904//EN"
 "http://www.w3.org/TR/2001/REC-SVG-20010904/DTD/svg10.dtd">
<svg version="1.0" xmlns="http://www.w3.org/2000/svg"
 width="460.000000pt" height="460.000000pt" viewBox="0 0 460.000000 460.000000"
 preserveAspectRatio="xMidYMid meet">

<g transform="translate(0.000000,460.000000) scale(0.100000,-0.100000)"
fill="#000000" stroke="none">
<path d="M1375 3533 c-11 -2 -56 -11 -100 -19 -285 -55 -637 -248 -878 -483
-227 -220 -312 -407 -263 -576 25 -83 98 -155 182 -178 98 -28 144 -18 144 29
0 120 129 365 305 580 229 278 525 474 716 474 157 0 239 -176 226 -485 -17
-406 -196 -833 -462 -1100 -192 -193 -390 -291 -638 -314 -159 -15 -250 5
-326 74 -48 43 -79 91 -95 146 l-12 39 -41 -30 c-88 -65 -140 -184 -130 -299
19 -225 174 -364 447 -402 182 -26 452 31 670 141 481 242 883 797 1011 1400
31 142 34 428 5 535 -65 250 -225 411 -455 460 -66 14 -256 19 -306 8z"/>
<path d="M3625 3525 c-463 -85 -953 -410 -1211 -802 -104 -158 -140 -279 -123
-412 16 -129 75 -220 169 -260 49 -21 127 -30 148 -17 6 3 13 30 17 59 58 417
620 1086 1015 1205 186 56 251 32 267 -99 29 -244 -271 -831 -530 -1037 -68
-55 -178 -112 -213 -112 l-22 0 20 63 c35 113 89 240 159 374 58 111 68 136
59 153 -51 95 -319 -182 -505 -523 -20 -37 -51 -81 -67 -98 -23 -23 -29 -36
-25 -57 3 -16 -6 -59 -23 -107 -81 -233 -87 -466 -14 -620 54 -115 142 -176
256 -178 71 -2 157 19 165 40 3 8 -6 39 -20 71 -46 103 -58 168 -63 347 -3 94
-2 203 3 242 l9 73 -35 6 c-20 3 -58 12 -86 19 -49 12 -48 13 40 8 524 -30
1232 571 1305 1107 12 88 1 217 -26 291 -49 140 -143 223 -299 264 -73 18
-270 19 -370 0z"/>
<path d="M1177 2845 c-128 -44 -354 -257 -492 -465 -133 -198 -179 -373 -140
-523 26 -101 73 -153 164 -182 55 -18 164 -16 183 3 6 6 1 36 -13 82 -19 63
-21 87 -16 184 9 182 49 331 133 498 62 124 84 157 237 353 18 24 15 50 -7 58
-6 3 -29 -1 -49 -8z"/>
<path d="M3360 1844 c-25 -7 -82 -13 -127 -13 l-82 -1 20 -67 c79 -282 247
-601 417 -796 106 -121 214 -205 332 -257 48 -22 70 -25 170 -25 136 0 201 18
276 74 102 76 157 206 158 368 1 50 -2 94 -5 97 -3 3 -19 0 -35 -8 -59 -30
-150 -47 -255 -47 -92 -1 -117 3 -190 28 -47 16 -112 47 -144 69 -154 101
-313 292 -438 522 -21 39 -42 71 -45 71 -4 -1 -27 -7 -52 -15z"/>
<path d="M2435 1717 c-74 -34 -121 -127 -112 -221 4 -40 11 -55 37 -79 28 -24
38 -28 69 -22 79 14 186 115 211 200 15 52 1 89 -41 110 -43 23 -127 29 -164
12z"/>
<path d="M4373 1711 c-64 -30 -97 -87 -101 -175 -5 -122 47 -169 141 -128 131
58 221 218 158 281 -42 42 -132 51 -198 22z"/>
</g>
</svg>
