<?xml version="1.0" standalone="no"?>
<!DOCTYPE svg PUBLIC "-//W3C//DTD SVG 20010904//EN"
 "http://www.w3.org/TR/2001/REC-SVG-20010904/DTD/svg10.dtd">
<svg version="1.0" xmlns="http://www.w3.org/2000/svg"
 width="645.000000pt" height="165.000000pt" viewBox="0 0 645.000000 165.000000"
 preserveAspectRatio="xMidYMid meet">

<g transform="translate(0.000000,165.000000) scale(0.100000,-0.100000)"
fill="#000000" stroke="none">
<path d="M847 1243 c-4 -3 -7 -28 -7 -55 l0 -48 80 0 80 0 0 55 0 55 -73 0
c-41 0 -77 -3 -80 -7z"/>
<path d="M1900 1195 l0 -55 81 0 80 0 -3 53 -3 52 -77 3 -78 3 0 -56z"/>
<path d="M170 860 l0 -350 161 0 c184 0 214 8 251 69 22 34 23 47 26 265 4
256 -3 293 -59 341 -30 25 -33 25 -205 25 l-174 0 0 -350z m285 253 c30 -30
35 -63 35 -251 0 -158 -3 -192 -18 -222 l-17 -35 -77 -3 -78 -3 0 266 0 265
69 0 c51 0 74 -4 86 -17z"/>
<path d="M2420 1140 l0 -70 -65 0 -65 0 0 -46 0 -46 63 4 62 3 5 -206 c4 -183
7 -209 23 -227 21 -23 95 -42 162 -42 l45 0 0 45 c0 45 0 45 -34 45 -63 0 -66
11 -66 206 l0 174 90 0 90 0 0 45 0 45 -90 0 -90 0 0 70 0 70 -65 0 -65 0 0
-70z"/>
<path d="M2820 860 l0 -351 63 3 62 3 3 153 3 152 68 0 c100 0 105 -8 111
-174 l5 -131 63 -3 63 -3 -3 147 -3 146 -39 34 -38 33 30 26 c76 64 58 258
-29 302 -16 9 -78 13 -191 13 l-168 0 0 -350z m289 249 c38 -41 38 -147 0
-188 -16 -17 -31 -21 -89 -21 l-70 0 0 115 0 115 70 0 c57 0 73 -4 89 -21z"/>
<path d="M5600 1140 l0 -70 -65 0 -65 0 0 -46 0 -46 63 4 62 3 5 -208 5 -209
27 -23 c19 -17 45 -25 91 -30 94 -10 101 -7 105 43 3 41 2 42 -28 42 -70 0
-70 1 -70 200 l0 180 85 0 85 0 0 45 0 45 -85 0 -85 0 0 70 0 70 -65 0 -65 0
0 -70z"/>
<path d="M700 1024 l0 -46 78 3 77 4 0 -190 0 -190 -77 -3 -78 -3 0 -45 0 -44
218 2 217 3 3 43 3 42 -75 0 -76 0 0 235 0 235 -145 0 -145 0 0 -46z"/>
<path d="M1298 1054 c-63 -27 -70 -54 -66 -278 3 -188 4 -195 27 -219 33 -36
106 -51 202 -43 l79 6 0 -48 c0 -72 -15 -82 -128 -82 l-92 0 0 -46 0 -46 133
4 c223 5 217 -7 217 438 l0 330 -167 -1 c-127 0 -177 -4 -205 -15z m240 -262
l2 -192 -78 0 c-47 0 -83 5 -90 12 -17 17 -17 344 1 355 12 8 104 19 142 17
19 -1 20 -9 23 -192z"/>
<path d="M1760 1024 l0 -46 73 3 72 4 3 -192 2 -193 -75 0 -75 0 0 -45 0 -45
218 2 217 3 3 43 3 42 -75 0 -76 0 -2 233 -3 232 -142 3 -143 3 0 -47z"/>
<path d="M3420 1057 c-21 -8 -42 -25 -55 -47 -18 -32 -20 -52 -20 -220 0 -161
2 -190 18 -213 37 -56 57 -62 227 -62 l155 0 3 43 3 42 -124 0 c-95 0 -127 3
-136 14 -7 8 -13 40 -14 71 l-2 57 105 -1 c129 -1 169 12 192 59 22 43 24 156
4 205 -23 54 -57 65 -198 64 -68 0 -138 -5 -158 -12z m243 -84 c14 -8 8 -130
-7 -142 -9 -8 -45 -11 -98 -9 l-83 3 2 63 c1 35 7 69 13 77 17 20 141 26 173
8z"/>
<path d="M3870 685 l0 -386 63 3 62 3 3 101 3 102 119 3 c101 3 123 7 147 25
53 39 58 62 58 259 0 273 -2 275 -280 275 l-175 0 0 -385z m312 277 c19 -22
18 -323 -1 -345 -10 -13 -32 -17 -97 -17 l-84 0 0 189 0 190 53 3 c74 4 114
-2 129 -20z"/>
<path d="M4476 1060 c-74 -22 -90 -79 -84 -300 5 -236 14 -245 245 -245 214 0
222 9 222 280 1 257 -14 276 -229 274 -69 0 -138 -5 -154 -9z m234 -97 c12
-11 16 -46 18 -161 3 -193 2 -196 -99 -200 -62 -2 -79 0 -90 14 -20 24 -20
323 -1 347 24 28 142 28 172 0z"/>
<path d="M5046 1052 c-89 -31 -91 -37 -94 -308 l-3 -234 65 0 66 0 0 219 c0
186 2 222 16 235 12 13 40 16 140 16 l124 0 0 45 0 45 -132 0 c-99 -1 -146 -5
-182 -18z"/>
<path d="M6060 1057 c-52 -18 -75 -66 -75 -152 1 -84 27 -137 77 -154 17 -6
79 -11 137 -11 70 0 111 -4 119 -12 7 -7 12 -33 12 -58 0 -25 -5 -51 -12 -58
-8 -8 -59 -12 -165 -12 l-153 0 0 -46 0 -46 184 4 185 3 30 29 c52 50 65 170
26 246 -25 49 -60 60 -188 60 -74 0 -117 4 -125 12 -16 16 -16 90 0 106 8 8
57 12 155 12 l143 0 0 45 0 45 -157 -1 c-95 0 -172 -5 -193 -12z"/>
</g>
</svg>
